<mxfile host="app.diagrams.net" modified="2023-06-15T11:53:54.131Z" agent="Mozilla/5.0 (Macintosh; Intel Mac OS X 10_15_7) AppleWebKit/537.36 (KHTML, like Gecko) Chrome/111.0.0.0 Safari/537.36" version="21.3.8" etag="i2YNM8zG5j3yjR4jmEo0" type="github">
  <diagram name="第 1 页" id="VBSt7hHFiNRagfQYf_yI">
    <mxGraphModel>
      <root>
        <mxCell id="0" />
        <mxCell id="1" parent="0" />
      </root>
    </mxGraphModel>
  </diagram>
</mxfile>
